<svg width="649" height="156" viewBox="0 0 649 156" fill="none" xmlns="http://www.w3.org/2000/svg">
<path d="M585.365 156C582.081 156 578.954 155.741 575.982 155.222C573.009 154.739 570.4 154.065 568.154 153.201L574.374 132.879C576.725 133.708 578.867 134.244 580.803 134.486C582.773 134.728 584.449 134.59 585.831 134.071C587.248 133.553 588.268 132.568 588.89 131.116L589.512 129.665L561.518 46.5115H591.378L604.235 101.67H605.064L618.128 46.5115H648.196L619.165 132.775C617.714 137.164 615.605 141.104 612.841 144.595C610.11 148.12 606.516 150.902 602.058 152.941C597.599 154.98 592.035 156 585.365 156Z" fill="#83C5BE"/>
<path d="M506.732 127.384C501.652 127.384 497.159 126.555 493.253 124.896C489.383 123.202 486.341 120.645 484.129 117.223C481.917 113.802 480.812 109.447 480.812 104.159C480.812 99.8045 481.555 96.0892 483.041 93.0133C484.527 89.9029 486.6 87.3626 489.262 85.3927C491.923 83.4227 495.016 81.9193 498.541 80.8825C502.101 79.8457 505.937 79.1717 510.05 78.8607C514.508 78.5151 518.085 78.1004 520.781 77.6165C523.511 77.0981 525.481 76.3896 526.691 75.491C527.901 74.5579 528.505 73.331 528.505 71.8103V71.6029C528.505 69.5293 527.711 67.9395 526.121 66.8335C524.531 65.7276 522.492 65.1746 520.003 65.1746C517.273 65.1746 515.044 65.7794 513.316 66.9891C511.622 68.1641 510.603 69.9786 510.257 72.4324H483.922C484.268 67.5939 485.806 63.1355 488.536 59.0574C491.301 54.9446 495.327 51.6614 500.615 49.2075C505.903 46.7192 512.504 45.475 520.418 45.475C526.121 45.475 531.236 46.1489 535.763 47.4968C540.291 48.8101 544.144 50.6591 547.324 53.0438C550.503 55.3939 552.923 58.1588 554.582 61.3384C556.275 64.4834 557.122 67.9049 557.122 71.6029V126.14H530.372V114.942H529.75C528.16 117.914 526.224 120.316 523.943 122.148C521.697 123.98 519.122 125.31 516.219 126.14C513.35 126.969 510.188 127.384 506.732 127.384ZM516.064 109.343C518.241 109.343 520.28 108.894 522.181 107.995C524.116 107.097 525.689 105.801 526.898 104.107C528.108 102.414 528.713 100.357 528.713 97.9382V91.3026C527.952 91.6136 527.14 91.9074 526.276 92.1839C525.447 92.4604 524.548 92.7196 523.58 92.9615C522.647 93.2034 521.645 93.428 520.574 93.6354C519.537 93.8428 518.448 94.0329 517.308 94.2057C515.096 94.5513 513.281 95.1215 511.864 95.9164C510.482 96.6768 509.445 97.6272 508.754 98.7677C508.097 99.8736 507.769 101.118 507.769 102.5C507.769 104.712 508.547 106.406 510.102 107.581C511.657 108.756 513.644 109.343 516.064 109.343Z" fill="#83C5BE"/>
<path d="M391.895 126.14V19.9689H437.722C445.602 19.9689 452.497 21.5241 458.407 24.6346C464.317 27.745 468.913 32.117 472.196 37.7504C475.48 43.3838 477.121 49.9676 477.121 57.5019C477.121 65.1052 475.428 71.6891 472.041 77.2534C468.689 82.8176 463.971 87.1032 457.888 90.11C451.84 93.1167 444.773 94.6201 436.685 94.6201H409.313V72.2248H430.879C434.266 72.2248 437.152 71.6372 439.537 70.4622C441.956 69.2525 443.805 67.5418 445.084 65.3299C446.397 63.118 447.054 60.5087 447.054 57.5019C447.054 54.4605 446.397 51.8685 445.084 49.7257C443.805 47.5484 441.956 45.8895 439.537 44.7489C437.152 43.5739 434.266 42.9863 430.879 42.9863H420.718V126.14H391.895Z" fill="#83C5BE"/>
<path d="M287.538 126.14V19.9689H316.362V62.8933H317.814L349.748 19.9689H383.341L347.467 67.248L384.17 126.14H349.748L325.901 86.3256L316.362 98.7674V126.14H287.538Z" fill="#006D77"/>
<path d="M237.783 127.591C229.143 127.591 221.747 125.881 215.595 122.459C209.443 119.003 204.726 114.199 201.443 108.047C198.159 101.861 196.518 94.6895 196.518 86.5332C196.518 78.3768 198.159 71.2228 201.443 65.0709C204.726 58.8846 209.443 54.0806 215.595 50.6591C221.747 47.203 229.143 45.475 237.783 45.475C245.594 45.475 252.351 46.892 258.053 49.726C263.79 52.5254 268.231 56.4999 271.376 61.6494C274.521 66.7644 276.111 72.778 276.146 79.6901H249.603C249.223 75.5083 248.013 72.3287 245.974 70.1514C243.97 67.9395 241.377 66.8335 238.198 66.8335C235.709 66.8335 233.532 67.5593 231.666 69.0109C229.8 70.4279 228.348 72.5879 227.311 75.491C226.274 78.3596 225.756 81.9712 225.756 86.3258C225.756 90.6805 226.274 94.3093 227.311 97.2125C228.348 100.081 229.8 102.241 231.666 103.693C233.532 105.11 235.709 105.818 238.198 105.818C240.306 105.818 242.172 105.334 243.797 104.367C245.421 103.364 246.734 101.913 247.737 100.012C248.773 98.0765 249.396 95.7263 249.603 92.9615H276.146C276.042 99.9773 274.435 106.095 271.324 111.313C268.214 116.497 263.807 120.506 258.105 123.34C252.437 126.174 245.663 127.591 237.783 127.591Z" fill="#006D77"/>
<path d="M156.222 126.14V46.5116H184.838V126.14H156.222ZM170.53 38.2171C166.66 38.2171 163.342 36.9383 160.577 34.3808C157.812 31.8233 156.43 28.7474 156.43 25.1531C156.43 21.5588 157.812 18.4829 160.577 15.9254C163.342 13.3679 166.66 12.0891 170.53 12.0891C174.436 12.0891 177.754 13.3679 180.484 15.9254C183.249 18.4829 184.631 21.5588 184.631 25.1531C184.631 28.7474 183.249 31.8233 180.484 34.3808C177.754 36.9383 174.436 38.2171 170.53 38.2171Z" fill="#006D77"/>
<path d="M141.642 19.9689V126.14H113.026V19.9689H141.642Z" fill="#006D77"/>
<path d="M99.535 59.7827H70.2966C70.0892 57.3634 69.5363 55.1688 68.6377 53.1988C67.7737 51.2289 66.564 49.5354 65.0088 48.1184C63.4881 46.6668 61.6391 45.5609 59.4618 44.8006C57.2845 44.0057 54.8134 43.6082 52.0485 43.6082C47.21 43.6082 43.1146 44.7833 39.7622 47.1334C36.4443 49.4835 33.9214 52.8532 32.1934 57.2424C30.4999 61.6317 29.6531 66.9022 29.6531 73.054C29.6531 79.5514 30.5172 84.9947 32.2452 89.3839C34.0078 93.7386 36.548 97.0219 39.8659 99.2338C43.1837 101.411 47.1755 102.5 51.8412 102.5C54.5023 102.5 56.887 102.171 58.9952 101.515C61.1034 100.824 62.9352 99.8386 64.4904 98.5598C66.0456 97.2811 67.3071 95.7431 68.2748 93.946C69.2771 92.1143 69.951 90.0579 70.2966 87.7769L99.535 87.9842C99.1894 92.4771 97.9279 97.0564 95.7506 101.722C93.5733 106.353 90.4801 110.639 86.471 114.579C82.4966 118.484 77.5716 121.629 71.6963 124.014C65.821 126.399 58.9952 127.591 51.2191 127.591C41.4729 127.591 32.729 125.5 24.9874 121.318C17.2804 117.136 11.1804 110.984 6.68751 102.863C2.22917 94.7409 0 84.8046 0 73.054C0 61.2342 2.28101 51.2807 6.84303 43.1935C11.4051 35.0717 17.5569 28.9372 25.2985 24.7899C33.0401 20.608 41.6803 18.5171 51.2191 18.5171C57.9239 18.5171 64.0929 19.4329 69.7263 21.2647C75.3598 23.0964 80.3019 25.7748 84.5529 29.3C88.8039 32.7907 92.2254 37.0935 94.8175 42.2085C97.4095 47.3235 98.9821 53.1815 99.535 59.7827Z" fill="#006D77"/>
<rect x="27.2007" width="21.156" height="30.2229" fill="#006D77"/>
<rect x="54.4012" width="21.156" height="30.2229" fill="#006D77"/>
<rect x="27.2007" y="111.825" width="21.156" height="30.2229" fill="#006D77"/>
<rect x="54.4012" y="111.825" width="21.156" height="30.2229" fill="#006D77"/>
</svg>
