<svg width="417" height="346" viewBox="0 0 417 346" fill="none" xmlns="http://www.w3.org/2000/svg">
<rect x="204.576" y="236.688" width="76.5714" height="108.682" rx="9.88019" fill="#006D77"/>
<rect x="103.304" y="182.346" width="76.5714" height="163.023" rx="9.88019" fill="#E29578"/>
<rect x="2.03223" y="108.245" width="76.5714" height="237.124" rx="9.88019" fill="#006D77"/>
<circle cx="361.424" cy="186.052" r="55.576" fill="#006D77"/>
<path d="M335.488 215.692C335.488 212.286 336.159 208.914 337.463 205.767C338.766 202.62 340.676 199.761 343.085 197.353C345.493 194.945 348.352 193.034 351.499 191.731C354.645 190.427 358.018 189.757 361.424 189.757C364.83 189.757 368.202 190.427 371.349 191.731C374.496 193.034 377.355 194.945 379.763 197.353C382.171 199.761 384.082 202.62 385.385 205.767C386.689 208.914 387.359 212.286 387.359 215.692L361.424 215.692L335.488 215.692Z" fill="#83C5BE"/>
<rect x="340.429" y="155.176" width="12.3502" height="24.7005" rx="6.17512" fill="#83C5BE"/>
<rect x="367.599" y="155.176" width="12.3502" height="24.7005" rx="6.17512" fill="#83C5BE"/>
<path fill-rule="evenodd" clip-rule="evenodd" d="M34.5806 80.638L0 4.06655L9.00451 0L42.0793 73.237L115.022 63.825C117.487 63.507 119.805 65.0699 120.434 67.4745L140.291 143.399L203.778 133.011C205.263 132.768 206.777 133.214 207.892 134.224L264.508 185.499L262.9 153.005C262.765 150.28 264.865 147.961 267.59 147.826C270.315 147.692 272.633 149.791 272.768 152.516L274.966 196.923C275.101 199.648 273.001 201.966 270.276 202.101L225.87 204.299C223.145 204.434 220.827 202.335 220.692 199.61C220.557 196.885 222.656 194.566 225.381 194.431L257.876 192.823L203.024 143.146L137.447 153.876C134.932 154.288 132.515 152.717 131.87 150.251L111.975 74.1803L39.7151 83.5042C37.5594 83.7823 35.4752 82.6189 34.5806 80.638Z" fill="#83C5BE"/>
</svg>
