<svg width="315" height="409" viewBox="0 0 315 409" fill="none" xmlns="http://www.w3.org/2000/svg">
<path d="M207.307 239.768C230.717 245.409 279.229 261.768 285.999 282.075C294.46 307.46 252.153 348.921 222.537 369.229C192.922 389.536 143.845 422.536 129.461 403.075C117.953 387.506 157.948 348.639 179.384 331.152C163.871 342.434 130.646 361.613 121.846 348.075C113.703 335.547 142.124 311.427 160.716 298.51C148.163 306.646 127.866 316.978 121.846 309.152C115.649 301.097 130.723 291.009 141.107 285.898C128.892 291.412 108.277 298.032 105.769 287.998L167.538 255.845L207.307 239.768Z" fill="#83C5BE"/>
<path d="M195.984 102.655C205.846 80.6869 222.588 32.3053 210.667 14.526C195.766 -7.69821 137.085 0.398386 102.902 11.3984C68.7195 22.3984 12.59 41.0264 19.1826 64.3116C24.4566 82.9398 79.6697 75.085 106.617 68.829C88.2018 74.1965 52.7025 88.7424 58.0269 103.986C62.9538 118.092 99.4216 110.369 121.014 103.567C106.899 108.518 86.3072 118.251 88.8141 127.801C91.3945 137.631 108.597 131.88 118.993 126.794C107.158 133.082 89.3082 145.337 95.7099 153.46L158.936 124.275L195.984 102.655Z" fill="#83C5BE"/>
<path d="M134.538 132.307C89.1842 156.676 41.1793 154.871 22.8461 150.922L0 307.46C23.6922 311.973 88.8457 309.998 159.922 265.998C230.999 221.999 292.768 234.691 314.768 246.537V89.9993C247.922 72.2302 191.23 101.845 134.538 132.307Z" fill="#006D77"/>
<path d="M43.9999 163.614C41.2922 174.445 32.7179 177.153 28.7692 177.153L16.0769 281.229C30.2922 282.583 30.4615 294.768 28.7692 300.691C93.0766 296.46 118.461 276.998 169.23 248.229C209.845 225.214 262.871 223.973 284.306 226.229C287.014 218.106 297.281 219.46 302.076 221.153V112.845C288.537 111.492 287.409 99.3069 288.537 93.3839C236.922 89.9993 210.691 106.922 147.23 136.538C96.4612 160.23 57.2562 164.46 43.9999 163.614Z" fill="#83C5BE"/>
<ellipse cx="159.829" cy="189.995" rx="54.9997" ry="40.6152" transform="rotate(-18.541 159.829 189.995)" fill="#006D77"/>
<path d="M163.648 218.097L151.152 161.321L155.392 160.388L167.887 217.164L163.648 218.097ZM164.729 179.167C164.265 177.719 163.365 176.708 162.028 176.134C160.709 175.557 158.886 175.524 156.559 176.036C155.077 176.362 153.896 176.785 153.016 177.304C152.151 177.804 151.551 178.363 151.217 178.979C150.882 179.595 150.78 180.238 150.909 180.907C150.995 181.461 151.216 181.932 151.572 182.319C151.942 182.687 152.459 182.984 153.124 183.21C153.784 183.421 154.602 183.566 155.578 183.646C156.553 183.726 157.694 183.739 159.001 183.683L163.52 183.526C166.567 183.413 169.229 183.564 171.506 183.977C173.783 184.391 175.716 185.043 177.303 185.934C178.887 186.81 180.151 187.911 181.093 189.238C182.053 190.562 182.732 192.087 183.13 193.813C183.77 196.803 183.456 199.523 182.188 201.972C180.92 204.422 178.802 206.539 175.834 208.323C172.883 210.104 169.168 211.488 164.687 212.474C160.085 213.487 155.941 213.787 152.254 213.373C148.585 212.956 145.535 211.744 143.106 209.736C140.691 207.71 139.056 204.799 138.203 201.003L151.852 197.999C152.244 199.37 152.906 200.449 153.838 201.236C154.77 202.023 155.945 202.516 157.362 202.716C158.797 202.912 160.427 202.808 162.254 202.406C163.788 202.069 165.036 201.624 165.999 201.071C166.961 200.518 167.646 199.894 168.053 199.2C168.461 198.506 168.592 197.787 168.446 197.044C168.276 196.353 167.875 195.806 167.245 195.402C166.628 194.98 165.696 194.689 164.45 194.529C163.201 194.354 161.554 194.298 159.508 194.361L154.019 194.546C149.14 194.705 145.122 194.062 141.968 192.617C138.827 191.154 136.874 188.646 136.111 185.094C135.459 182.214 135.8 179.496 137.135 176.939C138.483 174.364 140.635 172.115 143.591 170.193C146.565 168.268 150.145 166.844 154.333 165.923C158.607 164.982 162.439 164.782 165.829 165.323C169.218 165.863 172.003 167.064 174.183 168.925C176.377 170.767 177.81 173.173 178.482 176.141L164.729 179.167Z" fill="#83C5BE"/>
</svg>
