<svg width="86" height="86" viewBox="0 0 86 86" fill="none" xmlns="http://www.w3.org/2000/svg">
<path fill-rule="evenodd" clip-rule="evenodd" d="M60 8H26C16.0589 8 8 16.0589 8 26V60C8 69.9411 16.0589 78 26 78H60C69.9411 78 78 69.9411 78 60V26C78 16.0589 69.9411 8 60 8ZM26 0C11.6406 0 0 11.6406 0 26V60C0 74.3594 11.6406 86 26 86H60C74.3594 86 86 74.3594 86 60V26C86 11.6406 74.3594 0 60 0H26Z" fill="#006D77"/>
<path fill-rule="evenodd" clip-rule="evenodd" d="M42.5 58C49.9558 58 56 51.9558 56 44.5C56 37.0442 49.9558 31 42.5 31C35.0442 31 29 37.0442 29 44.5C29 51.9558 35.0442 58 42.5 58ZM42.5 65C53.8218 65 63 55.8218 63 44.5C63 33.1782 53.8218 24 42.5 24C31.1782 24 22 33.1782 22 44.5C22 55.8218 31.1782 65 42.5 65Z" fill="#006D77"/>
<path d="M68 21.5C68 23.9853 65.9853 26 63.5 26C61.0147 26 59 23.9853 59 21.5C59 19.0147 61.0147 17 63.5 17C65.9853 17 68 19.0147 68 21.5Z" fill="#006D77"/>
</svg>
