<svg width="716" height="216" viewBox="0 0 716 216" fill="none" xmlns="http://www.w3.org/2000/svg">
<ellipse cx="84" cy="175" rx="84" ry="31" fill="#0C929E"/>
<rect y="137" width="168" height="38" fill="#0C929E"/>
<ellipse cx="84" cy="139" rx="84" ry="31" fill="#83C5BE"/>
<ellipse cx="84" cy="139" rx="84" ry="31" fill="#006D77"/>
<rect y="101" width="168" height="38" fill="#006D77"/>
<ellipse cx="84" cy="103" rx="84" ry="31" fill="#83C5BE"/>
<ellipse cx="84" cy="103" rx="84" ry="31" fill="#0C929E"/>
<rect y="65" width="168" height="38" fill="#0C929E"/>
<ellipse cx="84" cy="67" rx="84" ry="31" fill="#83C5BE"/>
<ellipse cx="84" cy="67" rx="84" ry="31" fill="#006D77"/>
<rect y="29" width="168" height="38" fill="#006D77"/>
<ellipse cx="84" cy="31" rx="84" ry="31" fill="#83C5BE"/>
<rect x="223" y="40" width="242" height="157" rx="16" fill="#006D77"/>
<rect x="223" y="76" width="242" height="25" fill="#EDF6F9"/>
<circle cx="608" cy="108" r="108" fill="#006D77"/>
<circle cx="608" cy="108" r="89" fill="#0C929E"/>
<path d="M577 152.977V63.4884H616.021C622.876 63.4884 628.633 64.406 633.291 66.2412C637.978 68.0764 641.508 70.669 643.881 74.019C646.283 77.369 647.485 81.3162 647.485 85.8605C647.485 89.1522 646.752 92.1526 645.287 94.8618C643.852 97.5709 641.831 99.8431 639.223 101.678C636.616 103.484 633.569 104.737 630.083 105.436V106.31C633.95 106.456 637.466 107.432 640.629 109.238C643.793 111.015 646.313 113.476 648.188 116.622C650.063 119.739 651 123.409 651 127.633C651 132.527 649.711 136.882 647.133 140.698C644.584 144.514 640.952 147.515 636.235 149.7C631.519 151.884 625.894 152.977 619.361 152.977H577ZM601.432 133.576H612.857C616.959 133.576 620.035 132.819 622.086 131.304C624.136 129.76 625.162 127.488 625.162 124.487C625.162 122.39 624.678 120.613 623.711 119.156C622.745 117.7 621.368 116.593 619.581 115.836C617.823 115.078 615.699 114.7 613.209 114.7H601.432V133.576ZM601.432 99.6683H611.451C613.59 99.6683 615.479 99.3333 617.12 98.6633C618.76 97.9933 620.035 97.032 620.943 95.7794C621.88 94.4976 622.349 92.9392 622.349 91.104C622.349 88.3366 621.353 86.2246 619.361 84.7681C617.369 83.2825 614.85 82.5396 611.803 82.5396H601.432V99.6683Z" fill="white"/>
<rect x="585.605" y="48" width="14.6279" height="18.9302" fill="white"/>
<rect x="610.558" y="48" width="14.6279" height="18.9302" fill="white"/>
<rect x="585.605" y="148.674" width="14.6279" height="19.7907" fill="white"/>
<rect x="610.558" y="149.535" width="14.6279" height="18.9302" fill="white"/>
</svg>
