<svg width="452" height="452" viewBox="0 0 452 452" fill="none" xmlns="http://www.w3.org/2000/svg">
<path d="M378.759 226C378.759 310.367 310.367 378.759 226 378.759C141.633 378.759 73.2407 310.367 73.2407 226C73.2407 141.633 141.633 73.2407 226 73.2407C310.367 73.2407 378.759 141.633 378.759 226Z" fill="#006D77"/>
<path d="M347.37 226C347.37 293.031 293.031 347.37 226 347.37C158.969 347.37 104.63 293.031 104.63 226C104.63 158.969 158.969 104.63 226 104.63C293.031 104.63 347.37 158.969 347.37 226Z" fill="#83C5BE"/>
<path d="M222.02 148.269C223.273 144.413 228.728 144.413 229.98 148.269L245.262 195.302C245.823 197.027 247.43 198.194 249.243 198.194H298.697C302.751 198.194 304.437 203.382 301.157 205.765L261.148 234.834C259.681 235.899 259.067 237.788 259.627 239.513L274.909 286.546C276.162 290.402 271.749 293.609 268.469 291.226L228.46 262.157C226.993 261.091 225.007 261.091 223.54 262.157L183.531 291.226C180.251 293.609 175.838 290.402 177.091 286.546L192.373 239.513C192.933 237.788 192.319 235.899 190.852 234.834L150.843 205.765C147.563 203.382 149.249 198.194 153.303 198.194H202.757C204.57 198.194 206.177 197.027 206.738 195.302L222.02 148.269Z" fill="#006D77"/>
<path fill-rule="evenodd" clip-rule="evenodd" d="M215.537 0C217.848 0 219.722 1.87377 219.722 4.18518V56.5C219.722 58.8114 217.848 60.6852 215.537 60.6852C213.226 60.6852 211.352 58.8114 211.352 56.5V4.18518C211.352 1.87377 213.226 0 215.537 0Z" fill="#E29578"/>
<path fill-rule="evenodd" clip-rule="evenodd" d="M236.463 27.2037C238.774 27.2037 240.648 29.0775 240.648 31.3889L240.648 56.5C240.648 58.8114 238.774 60.6852 236.463 60.6852C234.152 60.6852 232.278 58.8114 232.278 56.5L232.278 31.3889C232.278 29.0775 234.152 27.2037 236.463 27.2037Z" fill="#E29578"/>
<path fill-rule="evenodd" clip-rule="evenodd" d="M236.463 452C234.152 452 232.278 450.126 232.278 447.815L232.278 395.5C232.278 393.189 234.152 391.315 236.463 391.315C238.774 391.315 240.648 393.189 240.648 395.5L240.648 447.815C240.648 450.126 238.774 452 236.463 452Z" fill="#E29578"/>
<path fill-rule="evenodd" clip-rule="evenodd" d="M215.537 424.796C213.226 424.796 211.352 422.923 211.352 420.611L211.352 395.5C211.352 393.189 213.226 391.315 215.537 391.315C217.848 391.315 219.722 393.189 219.722 395.5L219.722 420.611C219.722 422.923 217.848 424.796 215.537 424.796Z" fill="#E29578"/>
<path fill-rule="evenodd" clip-rule="evenodd" d="M452 215.537C452 217.848 450.126 219.722 447.815 219.722L395.5 219.722C393.189 219.722 391.315 217.848 391.315 215.537C391.315 213.226 393.189 211.352 395.5 211.352L447.815 211.352C450.126 211.352 452 213.226 452 215.537Z" fill="#E29578"/>
<path fill-rule="evenodd" clip-rule="evenodd" d="M424.796 236.463C424.796 238.774 422.922 240.648 420.611 240.648L395.5 240.648C393.189 240.648 391.315 238.774 391.315 236.463C391.315 234.152 393.189 232.278 395.5 232.278L420.611 232.278C422.922 232.278 424.796 234.152 424.796 236.463Z" fill="#E29578"/>
<path fill-rule="evenodd" clip-rule="evenodd" d="M5.48821e-07 236.463C8.51926e-07 234.152 1.87377 232.278 4.18519 232.278L56.5 232.278C58.8114 232.278 60.6852 234.152 60.6852 236.463C60.6852 238.774 58.8114 240.648 56.5 240.648L4.18518 240.648C1.87377 240.648 2.45715e-07 238.774 5.48821e-07 236.463Z" fill="#E29578"/>
<path fill-rule="evenodd" clip-rule="evenodd" d="M27.2037 215.537C27.2037 213.226 29.0775 211.352 31.3889 211.352L56.5 211.352C58.8114 211.352 60.6852 213.226 60.6852 215.537C60.6852 217.848 58.8114 219.722 56.5 219.722L31.3889 219.722C29.0775 219.722 27.2037 217.848 27.2037 215.537Z" fill="#E29578"/>
<path fill-rule="evenodd" clip-rule="evenodd" d="M378.408 58.7953C380.042 60.4297 380.042 63.0796 378.408 64.7141L341.415 101.706C339.781 103.341 337.131 103.341 335.497 101.706C333.862 100.072 333.862 97.4219 335.497 95.7875L372.489 58.7953C374.123 57.1609 376.773 57.1609 378.408 58.7953Z" fill="#E29578"/>
<path fill-rule="evenodd" clip-rule="evenodd" d="M373.968 92.8283C375.603 94.4627 375.603 97.1126 373.968 98.747L356.212 116.503C354.578 118.138 351.928 118.138 350.293 116.503C348.659 114.869 348.659 112.219 350.293 110.585L368.05 92.8283C369.684 91.1939 372.334 91.1939 373.968 92.8283Z" fill="#E29578"/>
<path fill-rule="evenodd" clip-rule="evenodd" d="M73.5924 393.205C71.958 391.57 71.958 388.92 73.5924 387.286L110.585 350.294C112.219 348.659 114.869 348.659 116.503 350.294C118.138 351.928 118.138 354.578 116.503 356.213L79.5111 393.205C77.8767 394.839 75.2268 394.839 73.5924 393.205Z" fill="#E29578"/>
<path fill-rule="evenodd" clip-rule="evenodd" d="M78.0315 359.172C76.3971 357.537 76.3971 354.887 78.0315 353.253L95.7877 335.497C97.4221 333.862 100.072 333.862 101.706 335.497C103.341 337.131 103.341 339.781 101.706 341.415L83.9502 359.172C82.3158 360.806 79.6659 360.806 78.0315 359.172Z" fill="#E29578"/>
<path fill-rule="evenodd" clip-rule="evenodd" d="M58.7957 73.5924C60.4301 71.958 63.08 71.958 64.7144 73.5924L101.707 110.585C103.341 112.219 103.341 114.869 101.707 116.503C100.072 118.138 97.4222 118.138 95.7878 116.503L58.7957 79.5111C57.1613 77.8767 57.1613 75.2268 58.7957 73.5924Z" fill="#E29578"/>
<path fill-rule="evenodd" clip-rule="evenodd" d="M92.8285 78.0312C94.4629 76.3968 97.1128 76.3968 98.7473 78.0312L116.503 95.7875C118.138 97.4219 118.138 100.072 116.503 101.706C114.869 103.341 112.219 103.341 110.585 101.706L92.8285 83.95C91.1941 82.3156 91.1941 79.6656 92.8285 78.0312Z" fill="#E29578"/>
<path fill-rule="evenodd" clip-rule="evenodd" d="M393.204 378.408C391.57 380.042 388.92 380.042 387.285 378.408L350.293 341.415C348.659 339.781 348.659 337.131 350.293 335.497C351.928 333.862 354.578 333.862 356.212 335.497L393.204 372.489C394.839 374.123 394.839 376.773 393.204 378.408Z" fill="#E29578"/>
<path fill-rule="evenodd" clip-rule="evenodd" d="M359.171 373.969C357.537 375.603 354.887 375.603 353.253 373.969L335.497 356.213C333.862 354.578 333.862 351.928 335.497 350.294C337.131 348.659 339.781 348.659 341.415 350.294L359.171 368.05C360.806 369.684 360.806 372.334 359.171 373.969Z" fill="#E29578"/>
</svg>
