<svg width="401" height="342" viewBox="0 0 401 342" fill="none" xmlns="http://www.w3.org/2000/svg">
<rect x="27.0376" y="240.075" width="71.5607" height="101.57" rx="9.23364" fill="#006D77"/>
<rect x="121.682" y="189.29" width="71.5607" height="152.355" rx="9.23364" fill="#E29578"/>
<rect x="216.327" y="120.037" width="71.5607" height="221.607" rx="9.23364" fill="#006D77"/>
<path fill-rule="evenodd" clip-rule="evenodd" d="M271.609 39.2445C274.158 39.1785 276.278 41.1913 276.344 43.7402L277.42 85.2776C277.486 87.8266 275.474 89.9464 272.925 90.0125C270.376 90.0785 268.256 88.0657 268.19 85.5168L267.402 55.1216L166.582 161.305C165.672 162.263 164.396 162.785 163.076 162.74C161.756 162.695 160.519 162.087 159.677 161.07L135.682 132.076L83.8032 200.167C82.979 201.249 81.7196 201.912 80.3613 201.98C79.0029 202.048 77.6837 201.513 76.7557 200.519L48.6091 170.362L7.90669 237.842L0 233.073L43.8598 160.358C44.6075 159.119 45.8935 158.301 47.3334 158.151C48.7734 158.001 50.2005 158.534 51.1883 159.593L79.7736 190.22L131.86 121.856C132.714 120.736 134.032 120.067 135.44 120.038C136.848 120.01 138.192 120.626 139.089 121.711L163.471 151.171L260.706 48.7637L230.311 49.5511C227.762 49.6172 225.642 47.6044 225.576 45.0554C225.51 42.5065 227.523 40.3866 230.072 40.3206L271.609 39.2445Z" fill="#83C5BE"/>
<circle cx="349.061" cy="51.9392" r="51.9392" fill="#006D77"/>
<path d="M380.224 56.556C380.224 60.6485 379.418 64.7009 377.852 68.4818C376.286 72.2627 373.99 75.6982 371.097 78.592C368.203 81.4858 364.767 83.7813 360.987 85.3474C357.206 86.9135 353.153 87.7196 349.061 87.7196C344.968 87.7196 340.916 86.9135 337.135 85.3474C333.354 83.7813 329.919 81.4858 327.025 78.592C324.131 75.6982 321.836 72.2627 320.269 68.4818C318.703 64.7009 317.897 60.6485 317.897 56.556L349.061 56.556H380.224Z" fill="#83C5BE"/>
<rect x="329.439" y="23.0841" width="11.542" height="23.0841" rx="5.77102" fill="#83C5BE"/>
<rect x="354.832" y="23.0841" width="11.542" height="23.0841" rx="5.77102" fill="#83C5BE"/>
</svg>
